<svg width="162" height="77" viewBox="0 0 162 77" fill="none" xmlns="http://www.w3.org/2000/svg">
<path fill-rule="evenodd" clip-rule="evenodd" d="M43.9536 7.3244C39.946 9.18985 35.5924 11.1438 32.9527 12.3285L32.9526 12.3285C31.8375 12.829 31.0282 13.1922 30.6802 13.3535C30.5354 13.4205 30.1618 13.537 29.6145 13.7076L29.6144 13.7076C26.0897 14.8063 15.3621 18.1503 12.1858 25.0007C7.19527 33.8107 -2.13998 53.8797 0.443361 63.6753C2.46794 66.8991 13.1077 73.4337 39.6709 76.1922L58.1651 20.9666C53.7717 18.9532 47.0215 11.7119 44.0733 8.2023H43.9536V7.3244ZM107.834 7.08687C107.834 7.08647 107.833 7.08608 107.832 7.08568V7.08687H107.834Z" fill="white"/>
<path fill-rule="evenodd" clip-rule="evenodd" d="M118.047 7.32458C122.054 9.19 126.408 11.1439 129.047 12.3286L129.047 12.3286C130.163 12.8291 130.972 13.1923 131.32 13.3536C131.465 13.4206 131.838 13.5371 132.386 13.7077L132.386 13.7077C135.91 14.8064 146.638 18.1504 149.814 25.0008C154.805 33.8108 164.14 53.8798 161.557 63.6754C159.532 66.8992 148.892 73.4338 122.33 76.1922L103.835 20.966C108.229 18.9526 114.979 11.7108 117.927 8.20137H118.047V7.32458Z" fill="white"/>
<path d="M64.2384 0L52.0328 4.98135C58.6677 13.8892 74.4098 23.4417 81.9209 23.5882V11.5743C69.9031 11.3399 65.4381 2.49068 64.2384 0Z" fill="white"/>
<path d="M99.6035 0L111.809 4.98135C105.174 13.8892 89.4322 23.4417 81.921 23.5882V11.5743C93.9389 11.3399 98.4038 2.49068 99.6035 0Z" fill="white"/>
<path d="M54.67 63.8795L69.7592 19.0474H94.1761L110.637 63.8795H91.4327L82.1048 25.0983L71.954 63.8795H54.67Z" fill="white"/>
</svg>
