<svg width="71" height="34" viewBox="0 0 71 34" fill="none" xmlns="http://www.w3.org/2000/svg">
<path fill-rule="evenodd" clip-rule="evenodd" d="M19.2636 3.21063C17.5072 4.02822 15.5991 4.8846 14.4422 5.40382C13.9535 5.62317 13.5988 5.78235 13.4462 5.85302C13.3828 5.88241 13.219 5.93346 12.9792 6.00823C11.4344 6.48977 6.73278 7.95531 5.3407 10.9577C3.15348 14.8189 -0.937892 23.6145 0.194312 27.9077C1.08162 29.3205 5.74467 32.1844 17.3864 33.3934L25.4921 9.18894C23.5666 8.30651 20.6081 5.13276 19.316 3.59465H19.2636V3.5321V3.53208V3.21063Z" fill="#030712"/>
<path fill-rule="evenodd" clip-rule="evenodd" d="M51.7365 3.21052C53.4928 4.02807 55.4008 4.88439 56.5577 5.40361L56.5578 5.40367L56.5578 5.40368C57.0466 5.62302 57.4012 5.7822 57.5538 5.85286C57.6172 5.88225 57.781 5.9333 58.0208 6.00807C59.5656 6.48961 64.2672 7.95515 65.6593 10.9575C67.8465 14.8187 71.9379 23.6144 70.8057 27.9075C69.9184 29.3204 65.2553 32.1843 53.6137 33.3932L45.5079 9.18878C47.4335 8.30635 50.392 5.13261 51.684 3.59449H51.7365V3.21052ZM23.7402 3.10561C23.7402 3.10558 23.7403 3.10556 23.7403 3.10553V3.10561H23.7402Z" fill="#030712"/>
<path d="M28.1539 0L22.8045 2.18319C25.7124 6.08724 32.6117 10.2738 35.9036 10.338V5.0727C30.6365 4.96996 28.6797 1.09159 28.1539 0Z" fill="#030712"/>
<path d="M43.6534 0L49.0028 2.18319C46.0949 6.08724 39.1956 10.2738 35.9037 10.338V5.0727C41.1707 4.96996 43.1276 1.09159 43.6534 0Z" fill="#030712"/>
<path d="M23.9603 27.9961L30.5735 8.34741H41.2747L48.4891 27.9961H40.0723L35.9842 10.9994L31.5354 27.9961H23.9603Z" fill="#030712"/>
</svg>
